<?xml version="1.0" encoding="UTF-8" standalone="no"?>
<svg xmlns="http://www.w3.org/2000/svg" width="800" height="600">
<rect  x="115.000000" y="370.000000" width="20.000000" height="30.000000" style="fill:rgb(200,200,200);stroke-width:3;stroke:rgb(0,0,0)" /> 
<rect  x="100.000000" y="400.000000" width="50.000000" height="150.000000" style="fill:rgb(0,200,0);stroke-width:3;stroke:rgb(0,0,0)" /> 
<rect  x="515.000000" y="330.000000" width="20.000000" height="70.000000" style="fill:rgb(200,200,200);stroke-width:3;stroke:rgb(0,0,0)" /> 
<rect  x="500.000000" y="400.000000" width="50.000000" height="150.000000" style="fill:rgb(0,200,0);stroke-width:3;stroke:rgb(0,0,0)" /> 
<g transform="rotate(-5.710593,125.000000,370.000000)"> 
<rect  x="75.000000" y="355.000000" width="500.000000" height="30.000000" style="fill:rgb(0,120,0);stroke-width:3;stroke:rgb(200,200,200)" /> 
</g> 
<circle cx="125.000000" cy="370.000000" r="20" stroke="black" stroke-width="3" fill="lightgrey" /> 
<circle cx="525.000000" cy="330.000000" r="20" stroke="black" stroke-width="3" fill="lightgrey" /> 
<g transform="rotate(-5.710593,125.000000,370.000000)"> 
	<rect  x = "-217.500000" y="-3.500000" width="435.000000" height="7.000000" style="fill:rgb(210,210,210);stroke-width:1;stroke:rgb(0,0,0)" transform="matrix(1.000000 0.000000 -0.000000 1.000000 342.500000 370.000000)"  /> 
	<rect  x = "-228.000000" y="-10.500000" width="21.000000" height="21.000000" style="fill:rgb(130,130,130);stroke-width:3;stroke:rgb(0,0,0)" transform="matrix(1.000000 0.000000 -0.000000 1.000000 342.500000 370.000000)"  /> 
	<rect  x = "207.000000" y="-10.500000" width="21.000000" height="21.000000" style="fill:rgb(130,130,130);stroke-width:3;stroke:rgb(0,0,0)" transform="matrix(1.000000 0.000000 -0.000000 1.000000 342.500000 370.000000)"  /> 
	<rect  x = "173.995026" y="-10.500000" width="21.000000" height="21.000000" style="fill:rgb(130,130,130);stroke-width:3;stroke:rgb(0,0,0)" transform="matrix(1.000000 0.000000 -0.000000 1.000000 342.500000 370.000000)"  /> 
</g></svg>