<?xml version="1.0" encoding="UTF-8" standalone="no"?>
<svg xmlns="http://www.w3.org/2000/svg" width="800" height="600">
<rect  x="115.000000" y="370.000000" width="20.000000" height="30.000000" style="fill:rgb(200,200,200);stroke-width:3;stroke:rgb(0,0,0)" /> 
<rect  x="100.000000" y="400.000000" width="50.000000" height="150.000000" style="fill:rgb(0,200,0);stroke-width:3;stroke:rgb(0,0,0)" /> 
<rect  x="515.000000" y="330.000000" width="20.000000" height="70.000000" style="fill:rgb(200,200,200);stroke-width:3;stroke:rgb(0,0,0)" /> 
<rect  x="500.000000" y="400.000000" width="50.000000" height="150.000000" style="fill:rgb(0,200,0);stroke-width:3;stroke:rgb(0,0,0)" /> 
<g transform="rotate(-5.710593,125.000000,370.000000)"> 
<rect  x="75.000000" y="355.000000" width="500.000000" height="30.000000" style="fill:rgb(0,120,0);stroke-width:3;stroke:rgb(200,200,200)" /> 
</g> 
<circle cx="125.000000" cy="370.000000" r="20" stroke="black" stroke-width="3" fill="lightgrey" /> 
<circle cx="525.000000" cy="330.000000" r="20" stroke="black" stroke-width="3" fill="lightgrey" /> 
<g transform="rotate(-5.710593,125.000000,370.000000)"> 
	<rect  x = "-217.500000" y="-3.500000" width="435.000000" height="7.000000" style="fill:rgb(210,210,210);stroke-width:1;stroke:rgb(0,0,0)" transform="matrix(1.000000 0.000000 -0.000000 1.000000 342.500000 370.000000)"  /> 
	<rect  x = "-228.000000" y="-10.500000" width="21.000000" height="21.000000" style="fill:rgb(130,130,130);stroke-width:3;stroke:rgb(0,0,0)" transform="matrix(1.000000 0.000000 -0.000000 1.000000 342.500000 370.000000)"  /> 
	<rect  x = "207.000000" y="-10.500000" width="21.000000" height="21.000000" style="fill:rgb(130,130,130);stroke-width:3;stroke:rgb(0,0,0)" transform="matrix(1.000000 0.000000 -0.000000 1.000000 342.500000 370.000000)"  /> 
	<rect  x = "173.995026" y="-10.500000" width="21.000000" height="21.000000" style="fill:rgb(130,130,130);stroke-width:3;stroke:rgb(0,0,0)" transform="matrix(1.000000 0.000000 -0.000000 1.000000 342.500000 370.000000)"  /> 

	<style> .stileannotazioni { font: italic 13px sans-serif; } </style>

	<text x="-217.500000" y="-26.500000" dominant-baseline="middle" text-anchor="middle" class="stileannotazioni" transform="matrix(1.000000 0.000000 -0.000000 1.000000 342.500000 370.000000)"  >21.00</text>
		 <line x1="-228.000000" y1="-20.500000" x2="-207.000000" y2="-20.500000" style="stroke:rgb(0,0,0);stroke-width:2" transform="matrix(1.000000 0.000000 -0.000000 1.000000 342.500000 370.000000)" />
		 <line x1="-228.000000" y1="-25.500000" x2="-228.000000" y2="-15.500000" style="stroke:rgb(0,0,0);stroke-width:2" transform="matrix(1.000000 0.000000 -0.000000 1.000000 342.500000 370.000000)" />
		 <line x1="-207.000000" y1="-25.500000" x2="-207.000000" y2="-15.500000" style="stroke:rgb(0,0,0);stroke-width:2" transform="matrix(1.000000 0.000000 -0.000000 1.000000 342.500000 370.000000)" />
	<text x="217.500000" y="-26.500000" dominant-baseline="middle" text-anchor="middle" class="stileannotazioni" transform="matrix(1.000000 0.000000 -0.000000 1.000000 342.500000 370.000000)"  >21.00</text>
		 <line x1="207.000000" y1="-20.500000" x2="228.000000" y2="-20.500000" style="stroke:rgb(0,0,0);stroke-width:2" transform="matrix(1.000000 0.000000 -0.000000 1.000000 342.500000 370.000000)" />
		 <line x1="207.000000" y1="-25.500000" x2="207.000000" y2="-15.500000" style="stroke:rgb(0,0,0);stroke-width:2" transform="matrix(1.000000 0.000000 -0.000000 1.000000 342.500000 370.000000)" />
		 <line x1="228.000000" y1="-25.500000" x2="228.000000" y2="-15.500000" style="stroke:rgb(0,0,0);stroke-width:2" transform="matrix(1.000000 0.000000 -0.000000 1.000000 342.500000 370.000000)" />
	<text x="184.495026" y="-26.500000" dominant-baseline="middle" text-anchor="middle" class="stileannotazioni" transform="matrix(1.000000 0.000000 -0.000000 1.000000 342.500000 370.000000)"  >21.00</text>
		 <line x1="173.995026" y1="-20.500000" x2="194.995026" y2="-20.500000" style="stroke:rgb(0,0,0);stroke-width:2" transform="matrix(1.000000 0.000000 -0.000000 1.000000 342.500000 370.000000)" />
		 <line x1="173.995026" y1="-25.500000" x2="173.995026" y2="-15.500000" style="stroke:rgb(0,0,0);stroke-width:2" transform="matrix(1.000000 0.000000 -0.000000 1.000000 342.500000 370.000000)" />
		 <line x1="194.995026" y1="-25.500000" x2="194.995026" y2="-15.500000" style="stroke:rgb(0,0,0);stroke-width:2" transform="matrix(1.000000 0.000000 -0.000000 1.000000 342.500000 370.000000)" />
	<text x="0.000000" y="39.500000" dominant-baseline="middle" text-anchor="middle" class="stileannotazioni" transform="matrix(1.000000 0.000000 -0.000000 1.000000 342.500000 370.000000)"  >435.00</text>
		 <line x1="-217.500000" y1="45.500000" x2="217.500000" y2="45.500000" style="stroke:rgb(0,0,0);stroke-width:2" transform="matrix(1.000000 0.000000 -0.000000 1.000000 342.500000 370.000000)" />
		 <line x1="-217.500000" y1="40.500000" x2="-217.500000" y2="50.500000" style="stroke:rgb(0,0,0);stroke-width:2" transform="matrix(1.000000 0.000000 -0.000000 1.000000 342.500000 370.000000)" />
		 <line x1="217.500000" y1="40.500000" x2="217.500000" y2="50.500000" style="stroke:rgb(0,0,0);stroke-width:2" transform="matrix(1.000000 0.000000 -0.000000 1.000000 342.500000 370.000000)" />
	<text x="-16.502487" y="19.500000" dominant-baseline="middle" text-anchor="middle" class="stileannotazioni" transform="matrix(1.000000 0.000000 -0.000000 1.000000 342.500000 370.000000)"  >402.00</text>
		 <line x1="-217.500000" y1="25.500000" x2="184.495026" y2="25.500000" style="stroke:rgb(0,0,0);stroke-width:2" transform="matrix(1.000000 0.000000 -0.000000 1.000000 342.500000 370.000000)" />
		 <line x1="-217.500000" y1="20.500000" x2="-217.500000" y2="30.500000" style="stroke:rgb(0,0,0);stroke-width:2" transform="matrix(1.000000 0.000000 -0.000000 1.000000 342.500000 370.000000)" />
		 <line x1="184.495026" y1="20.500000" x2="184.495026" y2="30.500000" style="stroke:rgb(0,0,0);stroke-width:2" transform="matrix(1.000000 0.000000 -0.000000 1.000000 342.500000 370.000000)" />
	<text x="241.000000" y="0.000000" dominant-baseline="middle" class="stileannotazioni" transform="matrix(1.000000 0.000000 -0.000000 1.000000 342.500000 370.000000)"  >7.00</text>
		 <line x1="238.000000" y1="-3.500000" x2="238.000000" y2="3.500000" style="stroke:rgb(0,0,0);stroke-width:2" transform="matrix(1.000000 0.000000 -0.000000 1.000000 342.500000 370.000000)" />
		 <line x1="233.000000" y1="-3.500000" x2="243.000000" y2="-3.500000" style="stroke:rgb(0,0,0);stroke-width:2" transform="matrix(1.000000 0.000000 -0.000000 1.000000 342.500000 370.000000)" />
		 <line x1="233.000000" y1="3.500000" x2="243.000000" y2="3.500000" style="stroke:rgb(0,0,0);stroke-width:2" transform="matrix(1.000000 0.000000 -0.000000 1.000000 342.500000 370.000000)" />
	<text x="291.000000" y="0.000000" dominant-baseline="middle" class="stileannotazioni" transform="matrix(1.000000 0.000000 -0.000000 1.000000 342.500000 370.000000)"  >21.00</text>
		 <line x1="288.000000" y1="-10.500000" x2="288.000000" y2="10.500000" style="stroke:rgb(0,0,0);stroke-width:2" transform="matrix(1.000000 0.000000 -0.000000 1.000000 342.500000 370.000000)" />
		 <line x1="283.000000" y1="-10.500000" x2="293.000000" y2="-10.500000" style="stroke:rgb(0,0,0);stroke-width:2" transform="matrix(1.000000 0.000000 -0.000000 1.000000 342.500000 370.000000)" />
		 <line x1="283.000000" y1="10.500000" x2="293.000000" y2="10.500000" style="stroke:rgb(0,0,0);stroke-width:2" transform="matrix(1.000000 0.000000 -0.000000 1.000000 342.500000 370.000000)" />
	<text x="131.995026" y="0.000000" dominant-baseline="middle" class="stileannotazioni" transform="matrix(1.000000 0.000000 -0.000000 1.000000 342.500000 370.000000)"  >21.00</text>
		 <line x1="128.995026" y1="-10.500000" x2="128.995026" y2="10.500000" style="stroke:rgb(0,0,0);stroke-width:2" transform="matrix(1.000000 0.000000 -0.000000 1.000000 342.500000 370.000000)" />
		 <line x1="123.995026" y1="-10.500000" x2="133.995026" y2="-10.500000" style="stroke:rgb(0,0,0);stroke-width:2" transform="matrix(1.000000 0.000000 -0.000000 1.000000 342.500000 370.000000)" />
		 <line x1="123.995026" y1="10.500000" x2="133.995026" y2="10.500000" style="stroke:rgb(0,0,0);stroke-width:2" transform="matrix(1.000000 0.000000 -0.000000 1.000000 342.500000 370.000000)" />
</g><rect  x="100.000000" y="590.000000" width="50.000000" height="0.1" style="fill:rgb(0,0,0);stroke-width:1;stroke:rgb(225,225,225)" /> 
<text x="125.000000" y="580.000000" fill="white">50.000000</text><rect  x="70.000000" y="400.000000" width="0.1" height="150.000000" style="fill:rgb(0,0,0);stroke-width:1;stroke:rgb(225,225,225)" /> 
<text x="40.000000" y="475.000000" fill="white">150.000000</text>
<rect  x="20.000000" y="370.000000" width="0.1" height="30.000000" style="fill:rgb(0,0,0);stroke-width:1;stroke:rgb(225,225,225)" /> 
<text x="5.000000" y="385.000000" fill="white">30.000000</text>
<rect  x="610.000000" y="330.000000" width="0.1" height="70.000000" style="fill:rgb(0,0,0);stroke-width:1;stroke:rgb(225,225,225)" /> 
<text x="620.000000" y="365.000000" fill="white">70.000000</text>
<rect  x="150.000000" y="475.000000" width="350.000000" height="0.1" style="fill:rgb(0,0,0);stroke-width:1;stroke:rgb(225,225,225)" /> 
<text x="325.000000" y="465.000000" fill="white">450.000000</text>
<g transform="rotate(-5.710593,125.000000,370.000000)"> 
<rect  x="75.000000" y="327.000000" width="500.000000" height="0.1" style="fill:rgb(0,0,0);stroke-width:1;stroke:rgb(225,225,225)" /> 
<text x="325.000000" y="315.000000" fill="white">500.000000</text>
</g> 
</svg>