<?xml version="1.0" encoding="UTF-8" standalone="no"?>
<svg xmlns="http://www.w3.org/2000/svg" width="800" height="600">
<rect  x="115.000000" y="370.000000" width="20.000000" height="30.000000" style="fill:rgb(200,200,200);stroke-width:3;stroke:rgb(0,0,0)" /> 
<rect  x="100.000000" y="400.000000" width="50.000000" height="150.000000" style="fill:rgb(0,200,0);stroke-width:3;stroke:rgb(0,0,0)" /> 
<rect  x="515.000000" y="330.000000" width="20.000000" height="70.000000" style="fill:rgb(200,200,200);stroke-width:3;stroke:rgb(0,0,0)" /> 
<rect  x="500.000000" y="400.000000" width="50.000000" height="150.000000" style="fill:rgb(0,200,0);stroke-width:3;stroke:rgb(0,0,0)" /> 
<g transform="rotate(-5.710593,125.000000,370.000000)"> 
<rect  x="75.000000" y="355.000000" width="500.000000" height="30.000000" style="fill:rgb(0,120,0);stroke-width:3;stroke:rgb(200,200,200)" /> 
</g> 
<circle cx="125.000000" cy="370.000000" r="20" stroke="black" stroke-width="3" fill="lightgrey" /> 
<circle cx="525.000000" cy="330.000000" r="20" stroke="black" stroke-width="3" fill="lightgrey" /> 
<rect  x="100.000000" y="590.000000" width="50.000000" height="0.1" style="fill:rgb(0,0,0);stroke-width:1;stroke:rgb(225,225,225)" /> 
<text x="125.000000" y="580.000000" fill="white">50.000000</text><rect  x="70.000000" y="400.000000" width="0.1" height="150.000000" style="fill:rgb(0,0,0);stroke-width:1;stroke:rgb(225,225,225)" /> 
<text x="40.000000" y="475.000000" fill="white">150.000000</text>
<rect  x="20.000000" y="370.000000" width="0.1" height="30.000000" style="fill:rgb(0,0,0);stroke-width:1;stroke:rgb(225,225,225)" /> 
<text x="5.000000" y="385.000000" fill="white">30.000000</text>
<rect  x="610.000000" y="330.000000" width="0.1" height="70.000000" style="fill:rgb(0,0,0);stroke-width:1;stroke:rgb(225,225,225)" /> 
<text x="620.000000" y="365.000000" fill="white">70.000000</text>
<rect  x="150.000000" y="475.000000" width="350.000000" height="0.1" style="fill:rgb(0,0,0);stroke-width:1;stroke:rgb(225,225,225)" /> 
<text x="325.000000" y="465.000000" fill="white">450.000000</text>
<g transform="rotate(-5.710593,125.000000,370.000000)"> 
<rect  x="75.000000" y="327.000000" width="500.000000" height="0.1" style="fill:rgb(0,0,0);stroke-width:1;stroke:rgb(225,225,225)" /> 
<text x="325.000000" y="315.000000" fill="white">500.000000</text>
</g> 
</svg>