<?xml version="1.0" encoding="UTF-8" standalone="no"?>
<svg xmlns="http://www.w3.org/2000/svg" width="800" height="600">
<rect  x="115" y="370" width="20" height="30" style="fill:rgb(200,200,200);stroke-width:3;stroke:rgb(0,0,0)" /> 
<rect  x="100" y="400" width="50" height="150" style="fill:rgb(0,200,0);stroke-width:3;stroke:rgb(0,0,0)" /> 
<rect  x="515" y="330" width="20" height="70" style="fill:rgb(200,200,200);stroke-width:3;stroke:rgb(0,0,0)" /> 
<rect  x="500" y="400" width="50" height="150" style="fill:rgb(0,200,0);stroke-width:3;stroke:rgb(0,0,0)" /> 
<g transform="rotate(0.000000,125,370)"> 
<rect  x="75" y="355" width="500" height="30" style="fill:rgb(0,120,0);stroke-width:3;stroke:rgb(200,200,200)" /> 
</g> 
<circle cx="125" cy="370" r="20" stroke="black" stroke-width="3" fill="lightgrey" /> 
<circle cx="525" cy="330" r="20" stroke="black" stroke-width="3" fill="lightgrey" /> 
<rect  x="100" y="590" width="50" height="0.1" style="fill:rgb(0,0,0);stroke-width:1;stroke:rgb(225,225,225)" /> 
<text x="125" y="580" fill="white">50</text><rect  x="70" y="400" width="0.1" height="150" style="fill:rgb(0,0,0);stroke-width:1;stroke:rgb(225,225,225)" /> 
<text x="40" y="475" fill="white">150</text>
<rect  x="20" y="370" width="0.1" height="30" style="fill:rgb(0,0,0);stroke-width:1;stroke:rgb(225,225,225)" /> 
<text x="10" y="385" fill="white">30</text>
<rect  x="610" y="330" width="0.1" height="70" style="fill:rgb(0,0,0);stroke-width:1;stroke:rgb(225,225,225)" /> 
<text x="620" y="365" fill="white">70</text>
<rect  x="150" y="475" width="450" height="0.1" style="fill:rgb(0,0,0);stroke-width:1;stroke:rgb(225,225,225)" /> 
<text x="375" y="465" fill="white">450</text>
<g transform="rotate(0.000000,125,370)"> 
<rect  x="75" y="327" width="500" height="0.1" style="fill:rgb(0,0,0);stroke-width:1;stroke:rgb(225,225,225)" /> 
<text x="325" y="315" fill="white">500</text>
</g> 
</svg>